<svg width="140" height="16" viewBox="0 0 140 16" fill="none" xmlns="http://www.w3.org/2000/svg">
<path d="M11.34 0.96V3.7H7.62V15H4.2V3.7H0.48V0.96H11.34ZM19.9164 3.72C21.1964 3.72 22.2231 4.14667 22.9964 5C23.7697 5.84 24.1564 7 24.1564 8.48V15H20.7564V8.94C20.7564 8.19333 20.5631 7.61333 20.1764 7.2C19.7897 6.78667 19.2697 6.58 18.6164 6.58C17.9631 6.58 17.4431 6.78667 17.0564 7.2C16.6697 7.61333 16.4764 8.19333 16.4764 8.94V15H13.0564V0.2H16.4764V5.34C16.8231 4.84667 17.2964 4.45333 17.8964 4.16C18.4964 3.86667 19.1697 3.72 19.9164 3.72ZM37.053 9.24C37.053 9.56 37.033 9.89333 36.993 10.24H29.253C29.3063 10.9333 29.5263 11.4667 29.913 11.84C30.313 12.2 30.7996 12.38 31.373 12.38C32.2263 12.38 32.8196 12.02 33.153 11.3H36.793C36.6063 12.0333 36.2663 12.6933 35.773 13.28C35.293 13.8667 34.6863 14.3267 33.953 14.66C33.2196 14.9933 32.3996 15.16 31.493 15.16C30.3996 15.16 29.4263 14.9267 28.573 14.46C27.7196 13.9933 27.053 13.3267 26.573 12.46C26.093 11.5933 25.853 10.58 25.853 9.42C25.853 8.26 26.0863 7.24667 26.553 6.38C27.033 5.51333 27.6996 4.84667 28.553 4.38C29.4063 3.91333 30.3863 3.68 31.493 3.68C32.573 3.68 33.533 3.90667 34.373 4.36C35.213 4.81333 35.8663 5.46 36.333 6.3C36.813 7.14 37.053 8.12 37.053 9.24ZM33.553 8.34C33.553 7.75333 33.353 7.28667 32.953 6.94C32.553 6.59333 32.053 6.42 31.453 6.42C30.8796 6.42 30.393 6.58667 29.993 6.92C29.6063 7.25333 29.3663 7.72667 29.273 8.34H33.553ZM54.7572 0.96V15H51.3372V6.58L48.1972 15H45.4372L42.2772 6.56V15H38.8572V0.96H42.8972L46.8372 10.68L50.7372 0.96H54.7572ZM67.7366 9.24C67.7366 9.56 67.7166 9.89333 67.6766 10.24H59.9366C59.9899 10.9333 60.2099 11.4667 60.5966 11.84C60.9966 12.2 61.4832 12.38 62.0566 12.38C62.9099 12.38 63.5032 12.02 63.8366 11.3H67.4766C67.2899 12.0333 66.9499 12.6933 66.4566 13.28C65.9766 13.8667 65.3699 14.3267 64.6366 14.66C63.9032 14.9933 63.0832 15.16 62.1766 15.16C61.0832 15.16 60.1099 14.9267 59.2566 14.46C58.4032 13.9933 57.7366 13.3267 57.2566 12.46C56.7766 11.5933 56.5366 10.58 56.5366 9.42C56.5366 8.26 56.7699 7.24667 57.2366 6.38C57.7166 5.51333 58.3832 4.84667 59.2366 4.38C60.0899 3.91333 61.0699 3.68 62.1766 3.68C63.2566 3.68 64.2166 3.90667 65.0566 4.36C65.8966 4.81333 66.5499 5.46 67.0166 6.3C67.4966 7.14 67.7366 8.12 67.7366 9.24ZM64.2366 8.34C64.2366 7.75333 64.0366 7.28667 63.6366 6.94C63.2366 6.59333 62.7366 6.42 62.1366 6.42C61.5632 6.42 61.0766 6.58667 60.6766 6.92C60.2899 7.25333 60.0499 7.72667 59.9566 8.34H64.2366ZM83.7808 3.72C85.1674 3.72 86.2674 4.14 87.0808 4.98C87.9074 5.82 88.3208 6.98667 88.3208 8.48V15H84.9208V8.94C84.9208 8.22 84.7274 7.66667 84.3408 7.28C83.9674 6.88 83.4474 6.68 82.7808 6.68C82.1141 6.68 81.5874 6.88 81.2008 7.28C80.8274 7.66667 80.6408 8.22 80.6408 8.94V15H77.2408V8.94C77.2408 8.22 77.0474 7.66667 76.6608 7.28C76.2874 6.88 75.7674 6.68 75.1008 6.68C74.4341 6.68 73.9074 6.88 73.5208 7.28C73.1474 7.66667 72.9608 8.22 72.9608 8.94V15H69.5408V3.84H72.9608V5.24C73.3074 4.77333 73.7608 4.40667 74.3208 4.14C74.8808 3.86 75.5141 3.72 76.2208 3.72C77.0608 3.72 77.8074 3.9 78.4608 4.26C79.1274 4.62 79.6474 5.13333 80.0208 5.8C80.4074 5.18667 80.9341 4.68667 81.6008 4.3C82.2674 3.91333 82.9941 3.72 83.7808 3.72ZM94.1327 5.42C94.4527 4.9 94.9127 4.48 95.5127 4.16C96.1127 3.84 96.7993 3.68 97.5727 3.68C98.4927 3.68 99.326 3.91333 100.073 4.38C100.819 4.84667 101.406 5.51333 101.833 6.38C102.273 7.24667 102.493 8.25333 102.493 9.4C102.493 10.5467 102.273 11.56 101.833 12.44C101.406 13.3067 100.819 13.98 100.073 14.46C99.326 14.9267 98.4927 15.16 97.5727 15.16C96.786 15.16 96.0993 15.0067 95.5127 14.7C94.926 14.38 94.466 13.96 94.1327 13.44V15H90.7127V0.2H94.1327V5.42ZM99.0127 9.4C99.0127 8.54667 98.7727 7.88 98.2927 7.4C97.826 6.90667 97.246 6.66 96.5527 6.66C95.8727 6.66 95.2927 6.90667 94.8127 7.4C94.346 7.89333 94.1127 8.56667 94.1127 9.42C94.1127 10.2733 94.346 10.9467 94.8127 11.44C95.2927 11.9333 95.8727 12.18 96.5527 12.18C97.2327 12.18 97.8127 11.9333 98.2927 11.44C98.7727 10.9333 99.0127 10.2533 99.0127 9.4ZM114.807 9.24C114.807 9.56 114.787 9.89333 114.747 10.24H107.007C107.06 10.9333 107.28 11.4667 107.667 11.84C108.067 12.2 108.554 12.38 109.127 12.38C109.98 12.38 110.574 12.02 110.907 11.3H114.547C114.36 12.0333 114.02 12.6933 113.527 13.28C113.047 13.8667 112.44 14.3267 111.707 14.66C110.974 14.9933 110.154 15.16 109.247 15.16C108.154 15.16 107.18 14.9267 106.327 14.46C105.474 13.9933 104.807 13.3267 104.327 12.46C103.847 11.5933 103.607 10.58 103.607 9.42C103.607 8.26 103.84 7.24667 104.307 6.38C104.787 5.51333 105.454 4.84667 106.307 4.38C107.16 3.91333 108.14 3.68 109.247 3.68C110.327 3.68 111.287 3.90667 112.127 4.36C112.967 4.81333 113.62 5.46 114.087 6.3C114.567 7.14 114.807 8.12 114.807 9.24ZM111.307 8.34C111.307 7.75333 111.107 7.28667 110.707 6.94C110.307 6.59333 109.807 6.42 109.207 6.42C108.634 6.42 108.147 6.58667 107.747 6.92C107.36 7.25333 107.12 7.72667 107.027 8.34H111.307ZM120.031 5.7C120.431 5.08667 120.931 4.60667 121.531 4.26C122.131 3.9 122.798 3.72 123.531 3.72V7.34H122.591C121.738 7.34 121.098 7.52667 120.671 7.9C120.244 8.26 120.031 8.9 120.031 9.82V15H116.611V3.84H120.031V5.7ZM129.706 15.16C128.732 15.16 127.866 14.9933 127.106 14.66C126.346 14.3267 125.746 13.8733 125.306 13.3C124.866 12.7133 124.619 12.06 124.566 11.34H127.946C127.986 11.7267 128.166 12.04 128.486 12.28C128.806 12.52 129.199 12.64 129.666 12.64C130.092 12.64 130.419 12.56 130.646 12.4C130.886 12.2267 131.006 12.0067 131.006 11.74C131.006 11.42 130.839 11.1867 130.506 11.04C130.172 10.88 129.632 10.7067 128.886 10.52C128.086 10.3333 127.419 10.14 126.886 9.94C126.352 9.72667 125.892 9.4 125.506 8.96C125.119 8.50667 124.926 7.9 124.926 7.14C124.926 6.5 125.099 5.92 125.446 5.4C125.806 4.86667 126.326 4.44667 127.006 4.14C127.699 3.83333 128.519 3.68 129.466 3.68C130.866 3.68 131.966 4.02667 132.766 4.72C133.579 5.41333 134.046 6.33333 134.166 7.48H131.006C130.952 7.09333 130.779 6.78667 130.486 6.56C130.206 6.33333 129.832 6.22 129.366 6.22C128.966 6.22 128.659 6.3 128.446 6.46C128.232 6.60667 128.126 6.81333 128.126 7.08C128.126 7.4 128.292 7.64 128.626 7.8C128.972 7.96 129.506 8.12 130.226 8.28C131.052 8.49333 131.726 8.70667 132.246 8.92C132.766 9.12 133.219 9.45333 133.606 9.92C134.006 10.3733 134.212 10.9867 134.226 11.76C134.226 12.4133 134.039 13 133.666 13.52C133.306 14.0267 132.779 14.4267 132.086 14.72C131.406 15.0133 130.612 15.16 129.706 15.16ZM137.918 15.16C137.318 15.16 136.825 14.9867 136.438 14.64C136.065 14.28 135.878 13.84 135.878 13.32C135.878 12.7867 136.065 12.34 136.438 11.98C136.825 11.62 137.318 11.44 137.918 11.44C138.505 11.44 138.985 11.62 139.358 11.98C139.745 12.34 139.938 12.7867 139.938 13.32C139.938 13.84 139.745 14.28 139.358 14.64C138.985 14.9867 138.505 15.16 137.918 15.16Z" fill="white"/>
</svg>
